{"title":"National Lampoons The Legend Of Awesomest Maximus 2010","uid":6043473,"size":764753740,"categoryP":"video","categoryS":"movies","magnet":"?xt=urn:btih:787fccff7b0fe900c8cefae6435938a0d5e353c3&amp;dn=National+Lampoons+The+Legend+Of+Awesomest+Maximus+2010&amp;tr=udp%3A%2F%2Ftracker.openbittorrent.com%3A80&amp;tr=udp%3A%2F%2Fopen.demonii.com%3A1337&amp;tr=udp%3A%2F%2Ftracker.coppersurfer.tk%3A6969&amp;tr=udp%3A%2F%2Fexodus.desync.com%3A6969","seeders":0,"leechers":0,"uploader":".BONE.","files":2,"time":1292459450,"description":"Genre : Comedy\n\nPlot : When the sexually ambiguous Trojan Prince Orlando tries to win his father's approval by bringing the luscious Ellen of Greece back home to Troy, the jilted King Erotic threatens revenge Now General Awesomest Maximus must put aside his slacker ways and face off against Erotic's million-man Greek army with only 300 Trojans. Or was that 301? Dude, it's the Gods... don't\n\nInfomation\nGenre:Comedy\nLanguage:English\nSourceVD\n\nFormat : Matroska\nFile size : 729 MiB\nDuration : 1h 27mn\nOverall bit rate : 1 169 Kbps\n\n\nVideo\nFormat settings, CABAC : Yes\nFormat settings, ReFrames : 4 frames\nFormat settings, GOP : M=4, N=6\nCodec ID : V_MPEG4/ISO/AVC\nDuration : 1h 27mn\nBit rate : 789 Kbps\nWidth : 720 pixels\nHeight : 384 pixels\nDisplay aspect ratio : 1.875\nFrame rate mode : Variable\nFrame rate : 25.000 fps\nColor space : YUV\nChroma subsampling : 4:2:0\nBit depth : 8 bits\nScan type : Progressive\nBits/(Pixel*Frame) : 0.114\nStream size : 475 MiB (65%)\nWriting library : x264\n\nAudio\nID : 2\nFormat : AC-3\nFormat/Info : Audio Coding 3\nMode extension : CM (complete main)\nCodec ID : A_AC3\nDuration : 1h 27mn\nBit rate mode : Constant\nBit rate : 384 Kbps\nChannel(s) : 6 channels\nChannel positions : Front: L C R, Side: L R, LFE\nSampling rate : 48.0 KHz\nBit depth : 16 bits\nVideo delay : -1mn 5s\nStream size : 240 MiB (33%)\nLanguage : English\n &lt;a href=&quot;\nhttp://www.imdb.com/title/tt1059887/&quot; rel=&quot;nofollow&quot; target=&quot;_NEW&quot;&gt;\nhttp://www.imdb.com/title/tt1059887/&lt;/a&gt;","torrent":{"xt":"urn:btih:787fccff7b0fe900c8cefae6435938a0d5e353c3","amp;dn":"National+Lampoons+The+Legend+Of+Awesomest+Maximus+2010","amp;tr":["udp%3A%2F%2Ftracker.openbittorrent.com%3A80","udp%3A%2F%2Fopen.demonii.com%3A1337","udp%3A%2F%2Ftracker.coppersurfer.tk%3A6969","udp%3A%2F%2Fexodus.desync.com%3A6969"],"infoHash":"787fccff7b0fe900c8cefae6435938a0d5e353c3","infoHashBuffer":{"type":"Buffer","data":[120,127,204,255,123,15,233,0,200,206,250,230,67,89,56,160,213,227,83,195]},"announce":[],"urlList":[]}}